<svg height="128" width="128" xmlns="http://www.w3.org/2000/svg"><rect x="2" y="2" width="124" height="124" rx="14" fill="#363d52" stroke="#212532" stroke-width="4"/><g transform="scale(.101) translate(122 122)"><g fill="#fff"><path d="m105 673v33q407 354 814 0v-33z"/><path d="m105 673v33q407 354 814 0v-33z" fill="#478cbf" transform="scale(1 -1) translate(0 -1706)"/><ellipse cx="512" cy="180" fill="#478cbf" rx="407" ry="180"/><ellipse cx="512" cy="180" fill="#32233a" rx="407" ry="180" transform="scale(1 -1) translate(0 -360)"/><ellipse cx="512" cy="526" fill="#fff" rx="407" ry="180"/><ellipse cx="512" cy="526" fill="#32233a" rx="407" ry="180" transform="scale(1 -1) translate(0 -1052)"/><path d="m105 673v33q407 354 814 0v-33z" fill="#478cbf"/><path d="m105 673v33q407 354 814 0v-33z" fill="#32233a" transform="scale(1 -1) translate(0 -1706)"/></g></g></svg>